<?xml version="1.0" encoding="UTF-8" standalone="no"?><svg xmlns="http://www.w3.org/2000/svg" xmlns:xlink="http://www.w3.org/1999/xlink" fill="#000000" height="319.9" preserveAspectRatio="xMidYMid meet" version="1" viewBox="-3.3 -8.0 357.8 319.9" width="357.8" zoomAndPan="magnify"><g><g fill="#50653e" id="change1_1"><path d="M351.5,153.96c-1.76-38.21-20.21-73.64-43.91-102.91C288.08,26.94,261.47,7.18,230.39,1.73c-55.76-9.77-109.34,23.19-145.02,63.53-17.19,19.43-31.77,41.63-40.57,66.14-6.72,18.72-10.12,40.84-.89,59.32,.83,1.67,1.81,3.28,2.89,4.82-4.59,6.77-9.9,13.19-14.93,19.53-9,11.38-18.25,23.06-29.19,32.66-5.95,5.21-1.13,15.47,6.36,15.36,24.97-.35,49.63-5.57,73.81-11.57,18.93,25.35,44.83,44.75,75.86,52.69,30.03,7.68,62.4,4.65,91.11-6.68,58.21-22.99,104.67-78.74,101.68-143.57ZM246.44,25.1c-.29-.13-.55-.24,0,0h0Zm73.74,188.51c-13.02,24.77-33.28,44.45-57.59,58.09-24.13,13.54-51.38,20.47-79.24,18.44-12.09-.88-27.12-4.52-38.34-9.68-13.77-6.33-25.43-14.72-35.86-25.47-5.48-5.65-10.39-11.73-14.82-18.22-2.31-3.38-6.09-5.17-10.16-4.14-17.21,4.36-34.62,8.54-52.25,10.78,4.65-5.43,9.08-11.05,13.45-16.6,6.94-8.81,14.52-17.71,20.28-27.36,1.58-2.64,1.63-5.22,.77-7.4-.4-1.21-1.1-2.4-2.18-3.51-.66-.68-1.25-1.42-1.9-2.1-.09-.09-.15-.15-.2-.2-.09-.15-.21-.36-.38-.63-1.01-1.61-1.9-3.22-2.76-4.9-.06-.12-.11-.22-.16-.3-.03-.11-.07-.25-.13-.42-.26-.84-.58-1.66-.83-2.5-.57-1.92-.93-3.87-1.29-5.84-.04-.5-.1-.99-.14-1.49-.08-.96-.13-1.92-.16-2.88-.07-2.2-.01-4.4,.14-6.59,.07-1.04,.19-2.06,.28-3.1,.03-.33,.05-.55,.05-.7,.03-.14,.07-.36,.13-.7,.45-2.51,.9-5,1.49-7.48,1.19-4.95,2.73-9.82,4.53-14.58,.44-1.16,.9-2.32,1.36-3.47,.07-.16,.45-1.07,.56-1.34,.1-.24,.2-.48,.31-.71,1.29-2.85,2.61-5.68,4.03-8.47,5.45-10.68,11.97-20.78,19.17-30.35,1.1-1.47,2.58-3.33,4.56-5.73,2.07-2.51,4.19-4.97,6.36-7.38,4.39-4.89,8.99-9.59,13.78-14.08,9.83-9.21,18.07-15.72,29.36-22.83,11.04-6.95,21.3-12.03,32.57-15.78,12.41-4.14,22.24-5.97,34.35-6.08,12.5-.11,22.41,1.59,34.86,6.33,.82,.31,1.63,.63,2.44,.96,.12,.05,.27,.12,.45,.2,1.41,.62,2.8,1.27,4.18,1.95,3.26,1.61,6.45,3.39,9.54,5.31,6.32,3.92,11,7.51,16.46,12.43,12.74,11.48,23.24,25.07,32.21,39.64,9.21,14.94,16.86,30.58,20.95,47.72,6.55,27.47,2.73,56.51-10.23,81.18Z"/><path d="M182.19,110.3c2.69,10.92,5.45,21.95,7.8,33.07-16.01,2.77-32.3,4.74-48.12,8.57-1.51-10.03-2.56-20.1-2.41-30.3,.18-11.59-17.82-11.59-18,0-.45,28.85,8.65,56.55,10.98,85.12,.4,4.84,3.85,9,9,9,4.56,0,9.4-4.13,9-9-1.02-12.44-3.32-24.73-5.55-37.03,15.87-4,32.25-6,48.37-8.74,2.24,14.25,3.36,28.61,2.34,43.02-.82,11.56,17.18,11.51,18,0,2.37-33.21-6.18-66.51-14.05-98.49-2.77-11.24-20.13-6.48-17.36,4.79Z"/><path d="M263.02,132.62c-.79-11.49-18.79-11.58-18,0,1.58,23.02,6.43,45.65,8.24,68.64,.38,4.85,3.86,9,9,9,4.57,0,9.38-4.13,9-9-1.81-22.99-6.66-45.63-8.24-68.64Z"/><path d="M248.53,93.42c-11.58,0-11.6,18,0,18s11.6-18,0-18Z"/></g></g></svg>